HIERARCHY
ROOT Pelvis
{
	OFFSET 0.000000 0.000000 0.000000
	CHANNELS 6 Xposition Yposition Zposition Xrotation Yrotation Zrotation
	JOINT LeftUpLeg_virtual
	{
		OFFSET 0.000000 0.000000 0.000000
		CHANNELS 3 Xrotation Yrotation Zrotation
		JOINT LeftUpLeg
		{
			OFFSET 18.735201 -5.666702 -4.541200
			CHANNELS 3 Xrotation Yrotation Zrotation
			JOINT LeftLeg
			{
				OFFSET -0.021200 -31.938179 0.493100
				CHANNELS 3 Xrotation Yrotation Zrotation
				JOINT LeftFoot
				{
					OFFSET 0.021200 -31.938179 -4.336299
					CHANNELS 3 Xrotation Yrotation Zrotation
					JOINT LeftToeBase
					{
						OFFSET 0.943001 -26.722000 15.023500
						CHANNELS 3 Xrotation Yrotation Zrotation
						End Site
						{
							OFFSET 0 0 0
						}
					}
				}
			}
		}
	}
	JOINT RightUpLeg_virtual
	{
		OFFSET 0.000000 0.000000 0.000000
		CHANNELS 3 Xrotation Yrotation Zrotation
		JOINT RightUpLeg
		{
			OFFSET -18.735201 -5.666702 -4.541200
			CHANNELS 3 Xrotation Yrotation Zrotation
			JOINT RightLeg
			{
				OFFSET 0.018946 -31.938133 0.493100
				CHANNELS 3 Xrotation Yrotation Zrotation
				JOINT RightFoot
				{
					OFFSET -0.018946 -31.938126 -4.336299
					CHANNELS 3 Xrotation Yrotation Zrotation
					JOINT RightToeBase
					{
						OFFSET -0.943001 -26.722004 15.023500
						CHANNELS 3 Xrotation Yrotation Zrotation
						End Site
						{
							OFFSET 0 0 0
						}
					}
				}
			}
		}
	}
	JOINT Hips_virtual
	{
		OFFSET 0.000000 0.000000 0.000000
		CHANNELS 3 Xrotation Yrotation Zrotation
		JOINT Hips
		{
			OFFSET -0.000000 -0.000000 -0.000000
			CHANNELS 3 Xrotation Yrotation Zrotation
			JOINT Spine
			{
				OFFSET 0.000000 10.199997 -0.299500
				CHANNELS 3 Xrotation Yrotation Zrotation
				JOINT Spine1
				{
					OFFSET 0.000000 11.900002 -1.516600
					CHANNELS 3 Xrotation Yrotation Zrotation
					JOINT Spine2
					{
						OFFSET 0.000000 13.600006 -2.842500
						CHANNELS 3 Xrotation Yrotation Zrotation
						JOINT Neck_virtual
						{
							OFFSET 0.000000 0.000000 0.000000
							CHANNELS 3 Xrotation Yrotation Zrotation
							JOINT Neck
							{
								OFFSET 0.000000 9.624100 -2.890100
								CHANNELS 3 Xrotation Yrotation Zrotation
								JOINT Head
								{
									OFFSET 0.000000 14.068802 -1.351900
									CHANNELS 3 Xrotation Yrotation Zrotation
									End Site
									{
										OFFSET 0 0 0
									}
								}
							}
						}
						JOINT LeftShoulder_virtual
						{
							OFFSET 0.000000 0.000000 0.000000
							CHANNELS 3 Xrotation Yrotation Zrotation
							JOINT LeftShoulder
							{
								OFFSET 15.263000 10.923401 -0.547700
								CHANNELS 3 Xrotation Yrotation Zrotation
								JOINT LeftArm
								{
									OFFSET 25.438599 -2.830597 -13.032500
									CHANNELS 3 Xrotation Yrotation Zrotation
									JOINT LeftForeArm
									{
										OFFSET 29.960503 0.000000 0.000000
										CHANNELS 3 Xrotation Yrotation Zrotation
										JOINT LeftHand
										{
											OFFSET 27.849251 0.000000 0.000000
											CHANNELS 3 Xrotation Yrotation Zrotation
											End Site
											{
												OFFSET 0 0 0
											}
										}
									}
								}
							}
						}
						JOINT RightShoulder_virtual
						{
							OFFSET 0.000000 0.000000 0.000000
							CHANNELS 3 Xrotation Yrotation Zrotation
							JOINT RightShoulder
							{
								OFFSET -15.263000 10.923401 -0.547700
								CHANNELS 3 Xrotation Yrotation Zrotation
								JOINT RightArm
								{
									OFFSET -25.438599 -2.830597 -13.032500
									CHANNELS 3 Xrotation Yrotation Zrotation
									JOINT RightForeArm
									{
										OFFSET -29.960503 0.000000 0.000000
										CHANNELS 3 Xrotation Yrotation Zrotation
										JOINT RightHand
										{
											OFFSET -27.849251 0.000000 0.000000
											CHANNELS 3 Xrotation Yrotation Zrotation
											End Site
											{
												OFFSET 0 0 0
											}
										}
									}
								}
							}
						}
					}
				}
			}
		}
	}
}
MOTION
Frames: 5
Frame Time: 0.03333333
-1.280945 87.470016 5.907671 0.000000 0.000000 0.000000 0.205843 -21.549921 -7.860620 -42.831027 7.868836 9.713072 63.592162 0.483643 1.842867 9.773529 -1.373254 -1.855276 0.000000 0.000000 0.000000 10.859682 -0.860159 5.349839 -15.617844 -7.090581 -9.095204 26.706852 -0.627381 -1.706419 -22.817862 -4.294063 7.952861 0.000000 0.000000 0.000000 5.711882 0.892355 -0.779857 22.517728 3.136093 -5.300652 6.481863 1.931064 -1.278634 1.728837 1.734088 -0.409698 0.000000 0.000000 0.000000 -1.233691 1.377041 0.007290 -2.955301 0.698222 0.052899 0.000000 0.000000 0.000000 0.557386 1.574229 -1.990693 -1.097965 -2.458185 -15.177000 0.493749 -10.900754 -51.043428 4.722246 -45.010786 -0.770602 0.000000 0.000000 0.000000 1.845264 1.321023 1.118382 -1.179157 6.397844 12.896722 -1.528276 0.734820 45.061190 1.717036 45.552908 0.486357 0.000000 0.000000 0.000000 
-1.396556 87.397842 6.342005 0.000000 0.000000 0.000000 -0.092183 -21.394673 -8.030308 -43.274258 7.922734 9.688860 63.464786 0.502885 1.833045 9.668566 -1.342694 -1.863043 0.000000 0.000000 0.000000 11.113183 -0.701801 5.401197 -15.224008 -7.093009 -8.992652 26.367044 -0.636593 -1.727598 -23.086640 -4.310804 7.895729 0.000000 0.000000 0.000000 5.819929 0.906133 -0.766892 22.853077 3.223979 -5.266214 6.422647 1.922101 -1.356268 1.679852 1.757717 -0.435865 0.000000 0.000000 0.000000 -1.216294 1.372854 -0.005249 -2.973996 0.697923 0.057619 0.000000 0.000000 0.000000 0.558132 1.594288 -1.994759 -1.087875 -2.354812 -15.165969 0.510027 -10.822261 -50.995114 4.742891 -45.118304 -0.658864 0.000000 0.000000 0.000000 1.842745 1.373944 1.089350 -1.180363 6.351077 12.992093 -1.481508 0.564980 45.099920 1.678071 45.779203 0.506561 0.000000 0.000000 0.000000 
-1.617558 87.259079 7.189012 0.000000 0.000000 0.000000 -0.643269 -21.092937 -8.344285 -44.091374 8.025521 9.644504 63.194037 0.543439 1.809580 9.443402 -1.276882 -1.882002 0.000000 0.000000 0.000000 11.593504 -0.419116 5.495722 -14.477995 -7.100483 -8.801576 25.755190 -0.652307 -1.762897 -23.567016 -4.340741 7.797323 0.000000 0.000000 0.000000 6.027538 0.918411 -0.738429 23.461012 3.392222 -5.216567 6.310929 1.914359 -1.498048 1.592249 1.801180 -0.485441 0.000000 0.000000 0.000000 -1.182662 1.366241 -0.027710 -3.009165 0.695957 0.066531 0.000000 0.000000 0.000000 0.564016 1.633154 -2.000094 -1.064166 -2.149514 -15.129100 0.553176 -10.656939 -50.896514 4.769818 -45.334704 -0.456935 0.000000 0.000000 0.000000 1.844192 1.472789 1.036122 -1.183173 6.259184 13.167469 -1.395695 0.255273 45.186561 1.607565 46.209809 0.553021 0.000000 0.000000 0.000000 
-1.926011 87.063293 8.409929 0.000000 0.000000 0.000000 -1.370277 -20.667625 -8.758764 -45.162471 8.166519 9.585276 62.756564 0.609755 1.768498 9.076062 -1.168259 -1.913313 0.000000 0.000000 0.000000 12.252304 -0.072984 5.619753 -13.455723 -7.118208 -8.547129 24.987810 -0.669330 -1.800709 -24.162255 -4.377334 7.684143 0.000000 0.000000 0.000000 6.318315 0.908045 -0.690650 24.231483 3.619847 -5.180518 6.159135 1.923868 -1.682146 1.481539 1.858357 -0.553516 0.000000 0.000000 0.000000 -1.134742 1.360419 -0.055692 -3.056916 0.690534 0.078845 0.000000 0.000000 0.000000 0.579841 1.688501 -2.002569 -1.023030 -1.848278 -15.047392 0.638268 -10.392411 -50.746335 4.781103 -45.656714 -0.199784 0.000000 0.000000 0.000000 1.858920 1.606014 0.966185 -1.188250 6.126438 13.396060 -1.282576 -0.143301 45.335230 1.516824 46.809281 0.634521 0.000000 0.000000 0.000000 
-2.300329 86.821091 9.956021 0.000000 0.000000 0.000000 -2.183024 -20.161767 -9.221902 -46.346088 8.329145 9.514903 62.135290 0.708656 1.710400 8.551142 -1.009331 -1.948951 0.000000 0.000000 0.000000 13.027812 0.261565 5.757931 -12.254889 -7.153450 -8.260986 24.201879 -0.680537 -1.828678 -24.761565 -4.411877 7.585497 0.000000 0.000000 0.000000 6.669487 0.861219 -0.620667 25.034598 3.867298 -5.182552 5.983849 1.965825 -1.885860 1.361558 1.922963 -0.633980 0.000000 0.000000 0.000000 -1.074518 1.359248 -0.084227 -3.112483 0.680755 0.093849 0.000000 0.000000 0.000000 0.606547 1.757160 -1.998601 -0.964192 -1.465068 -14.910993 0.775530 -10.019881 -50.548260 4.756278 -46.068868 0.075242 0.000000 0.000000 0.000000 1.894131 1.760902 0.886805 -1.196243 5.960668 13.646052 -1.152431 -0.573016 45.557843 1.416640 47.540910 0.757231 0.000000 0.000000 0.000000 
